<svg data-v-423bf9ae="" xmlns="http://www.w3.org/2000/svg" viewBox="0 0 59.88000297546387 60" class="font"><!----><!----><!----><g data-v-423bf9ae="" id="e0a3ad4c-a0c8-444b-90c3-0efef5f2ebed" fill="white" transform="matrix(6,0,0,6,-2.940000295639038,-18.719998359680176)"><path d="M7.03 10.14L7.27 10.35Q6.97 10.90 6.54 11.40Q6.11 11.90 5.59 12.28Q5.07 12.67 4.46 12.89Q3.86 13.12 3.19 13.12L3.19 13.12Q2.68 13.12 2.19 12.95Q1.71 12.78 1.33 12.46Q0.95 12.15 0.72 11.71Q0.49 11.27 0.49 10.73L0.49 10.73Q0.49 10.20 0.70 9.74Q0.92 9.29 1.25 8.91Q1.59 8.54 2.02 8.24Q2.45 7.95 2.88 7.75L2.88 7.75Q2.58 7.69 2.33 7.52Q2.08 7.35 1.91 7.11Q1.74 6.87 1.65 6.58Q1.57 6.28 1.57 5.98L1.57 5.98Q1.57 5.56 1.72 5.19Q1.87 4.82 2.12 4.50Q2.38 4.18 2.72 3.93Q3.06 3.67 3.44 3.49Q3.82 3.32 4.22 3.22Q4.62 3.12 5.00 3.12L5.00 3.12Q5.56 3.12 6.02 3.35Q6.49 3.57 6.84 3.99L6.84 3.99L5.85 4.72Q5.71 4.52 5.54 4.34Q5.37 4.17 5.18 4.04Q4.98 3.92 4.76 3.84Q4.54 3.77 4.29 3.77L4.29 3.77Q3.97 3.77 3.67 3.88Q3.36 3.99 3.12 4.19Q2.88 4.40 2.74 4.68Q2.59 4.96 2.59 5.29L2.59 5.29Q2.59 5.64 2.74 5.94Q2.89 6.23 3.14 6.45Q3.38 6.67 3.70 6.79Q4.02 6.92 4.35 6.92L4.35 6.92Q4.74 6.92 5.07 6.79L5.07 6.79L5.17 7.08Q4.61 7.25 4.06 7.53Q3.51 7.81 3.08 8.20Q2.64 8.59 2.37 9.10Q2.10 9.61 2.10 10.26L2.10 10.26Q2.10 10.64 2.21 10.96Q2.32 11.28 2.53 11.52Q2.73 11.76 3.04 11.89Q3.34 12.03 3.73 12.03L3.73 12.03Q4.12 12.03 4.61 11.87Q5.11 11.71 5.58 11.44Q6.05 11.18 6.44 10.83Q6.83 10.49 7.03 10.14L7.03 10.14ZM10.28 12.03L10.47 12.24Q10.38 12.41 10.26 12.57Q10.13 12.73 9.97 12.85Q9.82 12.97 9.63 13.05Q9.44 13.12 9.24 13.12L9.24 13.12Q8.71 13.12 8.47 12.82Q8.22 12.52 8.22 12.01L8.22 12.01L8.22 3.67L9.48 3.23L9.48 12.04Q9.48 12.18 9.54 12.29Q9.60 12.41 9.76 12.41L9.76 12.41Q9.92 12.41 10.06 12.28Q10.20 12.15 10.28 12.03L10.28 12.03Z"></path></g><!----><!----></svg>