<svg data-v-423bf9ae="" xmlns="http://www.w3.org/2000/svg" viewBox="0 0 59.760405250093875 60" class="font"><!----><!----><!----><g data-v-423bf9ae="" id="28a50120-8c2e-45e4-b4f9-3791085cc5b1" fill="white" transform="matrix(3.4227038020431153,0,0,3.4227038020431153,1.9167142228860783,-10.302337696252593)"><path d="M6.93 8.07L5.76 7.03Q6.02 6.82 6.26 6.50Q6.51 6.19 6.70 5.84Q6.89 5.49 7.01 5.13Q7.12 4.76 7.12 4.45L7.12 4.45Q7.12 4.20 7.00 4.02Q6.88 3.85 6.57 3.85L6.57 3.85Q6.30 3.85 5.98 3.97Q5.66 4.09 5.33 4.31Q5.00 4.53 4.69 4.82Q4.38 5.12 4.14 5.47Q3.90 5.82 3.76 6.20Q3.61 6.58 3.61 6.97L3.61 6.97Q3.61 7.31 3.69 7.55Q3.77 7.79 3.93 7.98Q4.09 8.17 4.31 8.33Q4.53 8.48 4.82 8.65L4.82 8.65Q3.96 9.02 3.24 9.55Q2.52 10.08 2.00 10.69Q1.48 11.31 1.19 11.96Q0.90 12.61 0.90 13.21L0.90 13.21Q0.90 13.43 1.00 13.59Q1.10 13.75 1.32 13.75L1.32 13.75Q1.61 13.75 1.96 13.59Q2.32 13.43 2.70 13.18Q3.08 12.93 3.47 12.61Q3.86 12.30 4.19 11.98Q4.53 11.66 4.80 11.38Q5.07 11.09 5.22 10.89L5.22 10.89Q5.63 11.22 5.93 11.47Q6.23 11.73 6.49 11.94L6.49 11.94Q6.38 12.10 6.11 12.38Q5.84 12.66 5.47 12.98Q5.09 13.30 4.65 13.63Q4.21 13.97 3.76 14.23Q3.30 14.50 2.86 14.67Q2.41 14.84 2.04 14.84L2.04 14.84Q1.72 14.84 1.40 14.73Q1.09 14.62 0.80 14.44Q0.51 14.26 0.27 14.02Q0.03 13.79-0.15 13.54Q-0.33 13.28-0.44 13.03Q-0.55 12.78-0.56 12.56L-0.56 12.56L-0.56 12.39Q-0.56 11.68-0.31 11.04Q-0.05 10.40 0.39 9.87Q0.83 9.33 1.42 8.90Q2.01 8.46 2.69 8.14L2.69 8.14Q2.56 8.02 2.44 7.88Q2.32 7.73 2.23 7.55Q2.14 7.37 2.08 7.14Q2.03 6.92 2.03 6.64L2.03 6.64Q2.03 6.16 2.20 5.70Q2.37 5.24 2.66 4.84Q2.95 4.44 3.33 4.10Q3.72 3.77 4.15 3.52Q4.58 3.28 5.03 3.14Q5.48 3.01 5.91 3.01L5.91 3.01Q6.61 3.01 6.89 3.15L6.89 3.15Q7.12 3.27 7.39 3.51Q7.66 3.74 7.90 4.02Q8.13 4.29 8.29 4.58Q8.44 4.86 8.44 5.09L8.44 5.09Q8.44 5.48 8.31 5.90Q8.18 6.32 7.97 6.72Q7.76 7.12 7.49 7.48Q7.21 7.83 6.93 8.07L6.93 8.07ZM11.73 20.54L11.73 20.54Q11.51 20.32 11.32 20.13Q11.14 19.93 10.95 19.74Q10.77 19.54 10.57 19.35Q10.38 19.15 10.16 18.93L10.16 18.93Q10.45 18.08 10.77 17.22Q11.10 16.37 11.50 15.42Q11.91 14.48 12.41 13.42Q12.91 12.36 13.54 11.10L13.54 11.10Q13.23 11.57 12.96 11.92Q12.69 12.26 12.49 12.50L12.49 12.50Q12.26 12.78 12.05 12.98L12.05 12.98Q11.53 13.48 11.13 13.84Q10.72 14.21 10.40 14.44Q10.08 14.68 9.84 14.79Q9.60 14.91 9.42 14.91L9.42 14.91Q9.28 14.91 9.12 14.81Q8.96 14.71 8.80 14.56Q8.65 14.42 8.51 14.25Q8.37 14.09 8.27 13.96L8.27 13.96Q8.10 13.74 8.08 13.39Q8.06 13.04 8.06 12.53L8.06 12.53Q8.06 11.74 8.19 10.88Q8.33 10.02 8.57 9.15Q8.82 8.28 9.17 7.41Q9.52 6.55 9.95 5.75Q10.38 4.96 10.88 4.26Q11.38 3.56 11.92 3.01L11.92 3.01Q12.07 3.16 12.25 3.35Q12.43 3.55 12.62 3.75Q12.81 3.96 12.98 4.16Q13.16 4.36 13.28 4.51L13.28 4.51Q12.70 5.04 12.19 5.70Q11.68 6.36 11.26 7.11Q10.83 7.85 10.50 8.66Q10.17 9.47 9.94 10.31Q9.71 11.14 9.58 11.96Q9.45 12.79 9.45 13.56L9.45 13.56Q10.21 13.18 10.84 12.63Q11.48 12.09 12.01 11.44Q12.54 10.79 12.97 10.08Q13.41 9.37 13.76 8.65Q14.11 7.92 14.39 7.22Q14.66 6.51 14.89 5.89Q15.11 5.27 15.29 4.76Q15.46 4.25 15.61 3.90L15.61 3.90Q15.67 4.01 15.79 4.16Q15.91 4.31 16.04 4.48Q16.17 4.66 16.31 4.83Q16.45 5.01 16.57 5.16Q16.69 5.32 16.78 5.43Q16.87 5.54 16.90 5.58L16.90 5.58Q16.54 6.45 16.18 7.30Q15.83 8.16 15.46 9.12Q15.09 10.07 14.70 11.18Q14.30 12.28 13.85 13.66Q13.39 15.03 12.87 16.73Q12.35 18.42 11.73 20.54Z"></path></g><!----><!----></svg>